<svg width="100" height="100" viewBox="0 0 100 100" xmlns="http://www.w3.org/2000/svg">
  <!-- Skin -->
  <path d="M50 10 C 80 10, 90 40, 90 60 C 90 85, 70 95, 50 95 C 30 95, 10 85, 10 60 C 10 40, 20 10, 50 10 Z" fill="#E91E63" stroke="#C2185B" stroke-width="2"/>
  
  <!-- Scales -->
  <path d="M50 5 L55 20 L45 20 Z" fill="#8BC34A" stroke="#689F38" />
  <path d="M20 30 L10 20 L25 25 Z" fill="#8BC34A" stroke="#689F38" />
  <path d="M80 30 L90 20 L75 25 Z" fill="#8BC34A" stroke="#689F38" />
  <path d="M10 50 L0 40 L15 50 Z" fill="#8BC34A" stroke="#689F38" />
  <path d="M90 50 L100 40 L85 50 Z" fill="#8BC34A" stroke="#689F38" />
  
  <!-- Flesh Center (Cut open view style or just details? Let's do a simple whole fruit look) -->
  <!-- Actually whole fruit is mostly pink/green. Let's make it look like half cut to show seeds if we want. -->
  <!-- Let's stick to whole fruit look with simple scales -->
  
  <path d="M30 40 Q 40 50 30 60" fill="none" stroke="#F48FB1" stroke-width="2" />
  <path d="M70 40 Q 60 50 70 60" fill="none" stroke="#F48FB1" stroke-width="2" />
  <path d="M50 30 Q 50 40 50 50" fill="none" stroke="#F48FB1" stroke-width="2" />
  
  <!-- Some spots -->
  <circle cx="50" cy="70" r="2" fill="#F8BBD0" />
  <circle cx="30" cy="50" r="2" fill="#F8BBD0" />
  <circle cx="70" cy="50" r="2" fill="#F8BBD0" />

</svg>
